HIERARCHY
ROOT joint_Root
{
	OFFSET 0.0 0.0 0.0
	CHANNELS 6 Xposition Yposition Zposition Zrotation Xrotation Yrotation 
	JOINT Hips
	{
		OFFSET -0.726466 93.3139 -2.00062
		CHANNELS 6 Xposition Yposition Zposition Zrotation Xrotation Yrotation 
		JOINT Spine
		{
			OFFSET 15.7357 0.0 0.0
			CHANNELS 6 Xposition Yposition Zposition Zrotation Xrotation Yrotation 
			JOINT Chest
			{
				OFFSET 8.98455 -0.406207 0.0
				CHANNELS 6 Xposition Yposition Zposition Zrotation Xrotation Yrotation 
				JOINT Neck
				{
					OFFSET 16.3773 0.0 0.0
					CHANNELS 6 Xposition Yposition Zposition Zrotation Xrotation Yrotation 
					JOINT Head
					{
						OFFSET 6.45672 0.0 0.0
						CHANNELS 6 Xposition Yposition Zposition Zrotation Xrotation Yrotation 
						End Site
						{
							OFFSET 0.0 0.0 0.0
						}
					}
				}
				JOINT Shoulder_L
				{
					OFFSET 12.9942 -0.242716 4.98039
					CHANNELS 6 Xposition Yposition Zposition Zrotation Xrotation Yrotation 
					JOINT UpperArm_L
					{
						OFFSET 5.34809 0.0 0.0
						CHANNELS 6 Xposition Yposition Zposition Zrotation Xrotation Yrotation 
						JOINT LowerArm_L
						{
							OFFSET 24.3286 1.87007e-05 0.0
							CHANNELS 6 Xposition Yposition Zposition Zrotation Xrotation Yrotation 
							JOINT Hand_L
							{
								OFFSET 22.2916 0.0 0.0
								CHANNELS 6 Xposition Yposition Zposition Zrotation Xrotation Yrotation 
								End Site
								{
									OFFSET 0.0 0.0 0.0
								}
							}
						}
					}
				}
				JOINT Shoulder_R
				{
					OFFSET 12.9945 -0.242716 -4.98039
					CHANNELS 6 Xposition Yposition Zposition Zrotation Xrotation Yrotation 
					JOINT UpperArm_R
					{
						OFFSET -5.34813 0.0 0.0
						CHANNELS 6 Xposition Yposition Zposition Zrotation Xrotation Yrotation 
						JOINT LowerArm_R
						{
							OFFSET -24.3289 0.000322201 0.0
							CHANNELS 6 Xposition Yposition Zposition Zrotation Xrotation Yrotation 
							JOINT Hand_R
							{
								OFFSET -22.2915 -0.000108084 0.0
								CHANNELS 6 Xposition Yposition Zposition Zrotation Xrotation Yrotation 
								End Site
								{
									OFFSET 0.0 0.0 0.0
								}
							}
						}
					}
				}
			}
		}
		JOINT UpperLeg_L
		{
			OFFSET -2.19248 -6.46944 0.0
			CHANNELS 6 Xposition Yposition Zposition Zrotation Xrotation Yrotation 
			JOINT LowerLeg_L
			{
				OFFSET 39.0811 0.0 -1.23785e-05
				CHANNELS 6 Xposition Yposition Zposition Zrotation Xrotation Yrotation 
				JOINT Foot_L
				{
					OFFSET 40.9854 0.0 -1.26872e-05
					CHANNELS 6 Xposition Yposition Zposition Zrotation Xrotation Yrotation 
					JOINT Toes_L
					{
						OFFSET 11.7543 0.0 0.0
						CHANNELS 6 Xposition Yposition Zposition Zrotation Xrotation Yrotation 
						End Site
						{
							OFFSET 0.0 0.0 0.0
						}
					}
				}
			}
		}
		JOINT UpperLeg_R
		{
			OFFSET -2.19251 6.46944 0.0
			CHANNELS 6 Xposition Yposition Zposition Zrotation Xrotation Yrotation 
			JOINT LowerLeg_R
			{
				OFFSET -39.0811 -0.00228153 -0.0401928
				CHANNELS 6 Xposition Yposition Zposition Zrotation Xrotation Yrotation 
				JOINT Foot_R
				{
					OFFSET -40.9854 0.0 0.0
					CHANNELS 6 Xposition Yposition Zposition Zrotation Xrotation Yrotation 
					JOINT Toes_R
					{
						OFFSET -11.7543 0.0 0.0
						CHANNELS 6 Xposition Yposition Zposition Zrotation Xrotation Yrotation 
						End Site
						{
							OFFSET 0.0 0.0 0.0
						}
					}
				}
			}
		}
	}
}
MOTION
Frames:	6
Frame Time:	0.0333333
0.000000 0.000000 0.000000 0.000000 0.000000 -0.000000 1.657210 92.357200 -3.094750 87.933500 -4.279970 2.424940 15.735700 0.000005 -0.000001 89.564100 85.203400 -91.638300 8.984550 -0.406207 -0.000000 1.830990 0.034416 -4.145080 16.377300 -0.000001 -0.000001 0.283780 -2.214160 1.575280 6.456720 -0.000001 -0.000000 -3.343260 -0.421237 -11.390100 12.994200 -0.242716 4.980390 -88.725400 -3.841230 -71.627400 5.348090 -0.000007 -0.000001 17.164300 77.279900 -64.642800 24.328600 0.000019 0.000005 16.027300 0.928110 -86.772700 22.291600 -0.000001 0.000005 44.452300 5.579550 -32.052900 12.994500 -0.242716 -4.980390 91.867800 -4.096840 -65.464400 -5.348130 -0.000001 -0.000004 -61.316400 -55.577300 -90.145500 -24.328900 0.000322 -0.000009 0.192740 0.517501 -20.532700 -22.291500 -0.000108 -0.000004 20.546700 5.393530 -2.728520 -2.192480 -6.469440 -0.000000 -171.841000 -15.640600 -3.927080 39.081100 -0.000007 -0.000012 -0.151040 0.378434 21.758000 40.985400 -0.000006 -0.000013 -4.209240 0.613825 -64.087300 11.754300 -0.000000 0.000003 -0.000038 -0.000440 -16.594700 -2.192510 6.469440 -0.000001 173.885000 18.193100 177.031000 -39.081100 -0.002282 -0.040193 0.038199 -0.106108 18.194100 -40.985400 0.000008 0.000006 -1.397500 3.763930 -60.419000 -11.754300 -0.000006 -0.000006 -0.007066 -0.080231 -19.839300
0.000000 0.000000 0.000000 0.000000 0.000000 -0.000000 1.608640 92.350000 -3.134020 87.905400 -4.194560 2.480960 15.735700 0.000005 -0.000001 90.174300 85.208600 -92.264400 8.984550 -0.406207 -0.000000 1.822690 0.137467 -4.178510 16.377300 -0.000001 -0.000001 0.375778 -2.345840 1.732800 6.456720 -0.000001 -0.000000 -3.208610 -0.591663 -11.369800 12.994200 -0.242716 4.980390 -88.718400 -3.867420 -71.650300 5.348090 -0.000007 -0.000001 17.185500 77.223500 -64.672000 24.328600 0.000019 0.000005 16.099800 0.930814 -86.778600 22.291600 -0.000001 0.000005 44.410600 5.578150 -32.127700 12.994500 -0.242716 -4.980390 91.996000 -4.365640 -65.399400 -5.348130 -0.000001 -0.000004 -60.977600 -55.706000 -92.942400 -24.328900 0.000322 -0.000009 0.247846 0.608392 -22.247400 -22.291500 -0.000108 -0.000004 20.600800 5.403190 -3.041460 -2.192480 -6.469440 -0.000000 -171.769000 -15.518700 -3.942400 39.081100 -0.000007 -0.000012 -0.151548 0.378457 21.823100 40.985400 -0.000006 -0.000013 -4.238690 0.642820 -64.083100 11.754300 -0.000000 0.000003 -0.000032 -0.000387 -16.592700 -2.192510 6.469440 -0.000001 173.943000 18.240500 177.031000 -39.081100 -0.002282 -0.040193 0.039274 -0.108759 18.291000 -40.985400 0.000008 0.000006 -1.307710 3.703400 -60.484300 -11.754300 -0.000006 -0.000006 -0.007003 -0.079686 -19.817100
0.000000 0.000000 0.000000 0.000000 0.000000 -0.000000 1.551590 92.364100 -3.190980 87.864800 -4.070140 2.495180 15.735700 0.000005 -0.000001 90.997100 85.217300 -93.109200 8.984550 -0.406207 -0.000000 1.806560 0.276118 -4.224470 16.377300 -0.000001 -0.000001 0.472729 -2.462010 1.928960 6.456720 -0.000001 -0.000000 -3.142230 -0.708719 -11.389000 12.994200 -0.242716 4.980390 -88.702800 -3.918950 -71.668300 5.348090 -0.000007 -0.000001 17.403600 77.137600 -64.918900 24.328600 0.000019 0.000005 16.154600 0.933530 -86.780800 22.291600 -0.000001 0.000005 44.431500 5.578690 -32.098800 12.994500 -0.242716 -4.980390 92.135800 -4.647220 -65.282900 -5.348130 -0.000001 -0.000004 -60.919900 -55.891000 -96.096900 -24.328900 0.000322 -0.000009 0.377919 0.853875 -23.932200 -22.291500 -0.000108 -0.000004 20.354000 5.412740 -3.356010 -2.192480 -6.469440 -0.000000 -171.684000 -15.534400 -3.952480 39.081100 -0.000007 -0.000012 -0.151629 0.380004 21.753100 40.985400 -0.000006 -0.000013 -4.244800 0.777164 -63.979900 11.754300 -0.000000 0.000003 -0.000033 -0.000394 -16.592900 -2.192510 6.469440 -0.000001 174.023000 18.328700 177.022000 -39.081100 -0.002282 -0.040193 0.038411 -0.106076 18.302400 -40.985400 0.000008 0.000006 -1.296040 3.675340 -60.391700 -11.754300 -0.000006 -0.000006 -0.006866 -0.078510 -19.769100
0.000000 0.000000 0.000000 0.000000 0.000000 -0.000000 1.483370 92.368100 -3.241330 87.830600 -3.950780 2.523100 15.735700 0.000005 -0.000001 91.912700 85.203200 -94.052500 8.984550 -0.406207 -0.000000 1.833900 0.430701 -4.282450 16.377300 -0.000001 -0.000001 0.583228 -2.547460 2.036130 6.456720 -0.000001 -0.000000 -3.179140 -0.798795 -11.331600 12.994200 -0.242716 4.980390 -88.695300 -3.949690 -71.703100 5.348090 -0.000007 -0.000001 17.265300 77.059800 -64.795700 24.328600 0.000019 0.000005 16.143200 0.938577 -86.761000 22.291600 -0.000001 0.000005 44.274300 5.576630 -32.208500 12.994500 -0.242716 -4.980390 92.271800 -4.910140 -65.132700 -5.348130 -0.000001 -0.000004 -60.992100 -56.041600 -99.551400 -24.328900 0.000322 -0.000009 0.446868 0.938172 -25.525700 -22.291500 -0.000108 -0.000004 20.303200 5.421590 -3.652670 -2.192480 -6.469440 -0.000000 -171.596000 -15.562600 -3.987190 39.081100 -0.000007 -0.000012 -0.151763 0.380364 21.751900 40.985400 -0.000006 -0.000013 -4.262110 0.886232 -63.903600 11.754300 -0.000000 0.000003 -0.000036 -0.000429 -16.594300 -2.192510 6.469440 -0.000001 174.107000 18.387700 177.013000 -39.081100 -0.002282 -0.040193 0.038885 -0.107233 18.346500 -40.985400 0.000008 0.000006 -1.278720 3.589020 -60.379200 -11.754300 -0.000006 -0.000006 -0.007252 -0.081814 -19.903900
0.000000 0.000000 0.000000 0.000000 0.000000 -0.000000 1.412570 92.384800 -3.305030 87.794000 -3.757350 2.472300 15.735700 0.000005 -0.000001 92.546300 85.213600 -94.703400 8.984550 -0.406207 -0.000000 1.811190 0.537040 -4.318750 16.377300 -0.000001 -0.000001 0.621562 -2.622290 2.141820 6.456720 -0.000001 -0.000000 -3.125770 -0.920200 -11.343300 12.994200 -0.242716 4.980390 -88.688100 -3.975900 -71.722600 5.348090 -0.000007 -0.000001 17.199100 77.021100 -64.759000 24.328600 0.000019 0.000005 16.313600 0.947001 -86.768000 22.291600 -0.000001 0.000005 44.329400 5.578680 -32.099400 12.994500 -0.242716 -4.980390 92.434700 -5.221640 -64.958100 -5.348130 -0.000001 -0.000004 -61.237900 -56.123500 -103.162000 -24.328900 0.000322 -0.000009 0.499869 0.973253 -27.238900 -22.291500 -0.000108 -0.000004 20.358300 5.431610 -3.994570 -2.192480 -6.469440 -0.000000 -171.535000 -15.537000 -4.082860 39.081100 -0.000007 -0.000012 -0.150822 0.379675 21.665200 40.985400 -0.000006 -0.000013 -4.265970 1.046710 -63.773800 11.754300 -0.000000 0.000003 -0.000031 -0.000371 -16.592100 -2.192510 6.469440 -0.000001 174.220000 18.523800 176.987000 -39.081100 -0.002282 -0.040193 0.038081 -0.105285 18.269300 -40.985400 0.000008 0.000006 -1.200160 3.503130 -60.328000 -11.754300 -0.000006 -0.000006 -0.006732 -0.077348 -19.721700
0.000000 0.000000 0.000000 0.000000 0.000000 -0.000000 1.335100 92.387600 -3.363480 87.756900 -3.533740 2.414590 15.735700 0.000005 -0.000001 92.889300 85.211900 -95.058300 8.984550 -0.406207 -0.000000 1.813070 0.594996 -4.343440 16.377300 -0.000001 -0.000001 0.689249 -2.703510 2.299410 6.456720 -0.000001 -0.000000 -3.132050 -0.936655 -11.451900 12.994200 -0.242716 4.980390 -88.683900 -3.985730 -71.710000 5.348090 -0.000007 -0.000001 17.006500 76.965400 -64.597300 24.328600 0.000019 0.000005 16.357700 0.959291 -86.735400 22.291600 -0.000001 0.000005 44.336900 5.577780 -32.147100 12.994500 -0.242716 -4.980390 92.593300 -5.526430 -64.812200 -5.348130 -0.000001 -0.000004 -61.659700 -56.147800 -106.962000 -24.328900 0.000322 -0.000009 0.536304 0.969817 -28.992000 -22.291500 -0.000108 -0.000004 20.406300 5.444480 -4.443400 -2.192480 -6.469440 -0.000000 -171.464000 -15.537500 -4.237120 39.081100 -0.000007 -0.000012 -0.150340 0.378254 21.675800 40.985400 -0.000006 -0.000013 -4.267190 1.262890 -63.686500 11.754300 -0.000000 0.000003 -0.000031 -0.000368 -16.591900 -2.192510 6.469440 -0.000001 174.332000 18.707800 176.932000 -39.081100 -0.002282 -0.040193 0.039595 -0.109841 18.273900 -40.985400 0.000008 0.000006 -1.139630 3.443770 -60.355700 -11.754300 -0.000006 -0.000006 -0.007327 -0.082445 -19.929700
